# xmcd
#
# Track frame offsets: 
#        150
#        11109
#        20538
#        33597
#        45401
#        54731
#        62888
#        74384
#        84718
#        96073
#        112351
#        124483
#        135672
#        144807
#
# Disc length: 2059 seconds
#
# Revision: 1
# Processed by: cddbd v1.5.2PL0 Copyright (c) Steve Scherf et al.
# Submitted via: ExactAudioCopy v1.3
#
DISCID=ce08090e
DTITLE=Lester Peabody - Lester Peabody_Focus On Gitars
DYEAR=2005
DGENRE=Instrumental
TTITLE0=Nine O'clock Special
TTITLE1=September Melody
TTITLE2=Lester's Woogie
TTITLE3=Blue Wind
TTITLE4=Sweet Rosie
TTITLE5=Madison Swing
TTITLE6=Blue Finger
TTITLE7=Dizzy Buggin'
TTITLE8=Sophisticated Swing
TTITLE9=Blues For Roy
TTITLE10=Rose Room
TTITLE11=Border Serenade
TTITLE12=When I Fall In Love
TTITLE13=Black Black Black
EXTD=
EXTT0=
EXTT1=
EXTT2=
EXTT3=
EXTT4=
EXTT5=
EXTT6=
EXTT7=
EXTT8=
EXTT9=
EXTT10=
EXTT11=
EXTT12=
EXTT13=
PLAYORDER=
